<svg width="118" height="120" viewBox="0 0 118 120" fill="none" xmlns="http://www.w3.org/2000/svg">
<path d="M7.10498 104.402V116.682C7.10498 118.514 8.59061 120 10.4235 120H24.6979C26.5307 120 28.0164 118.514 28.0164 116.682V104.402H7.10498Z" fill="#D0D4DE"/>
<path d="M14.3484 116.682V104.402H7.10498V116.682C7.10498 118.514 8.59061 120 10.4235 120H17.6669C15.8341 120 14.3484 118.514 14.3484 116.682Z" fill="#C2C7D5"/>
<path d="M110.895 104.402V116.682C110.895 118.514 109.409 120 107.577 120H93.3021C91.4693 120 89.9836 118.514 89.9836 116.682V104.402H110.895Z" fill="#D0D4DE"/>
<path d="M97.2271 116.682V104.402H89.9836V116.682C89.9836 118.514 91.4693 120 93.3021 120H100.546C98.7127 120 97.2271 118.514 97.2271 116.682Z" fill="#C2C7D5"/>
<path d="M32.8011 16.4315H13.3203V38.0361H32.8011V16.4315Z" fill="#D0D4DE"/>
<path d="M20.5638 16.4315H13.3203V38.0361H20.5638V16.4315Z" fill="#C2C7D5"/>
<path d="M34.8556 9.72699H11.2661C9.5639 9.72699 8.18378 11.1071 8.18378 12.8093V19.0814C8.18378 20.7836 9.5639 22.1638 11.2661 22.1638H34.8556C36.5579 22.1638 37.938 20.7839 37.938 19.0814V12.8093C37.938 11.1069 36.5581 9.72699 34.8556 9.72699Z" fill="#4D5C80"/>
<path d="M15.4272 19.0812V12.8093C15.4272 11.1071 16.8074 9.72699 18.5096 9.72699H11.2661C9.5639 9.72699 8.18378 11.1071 8.18378 12.8093V19.0814C8.18378 20.7836 9.5639 22.1638 11.2661 22.1638H18.5096C16.8071 22.1635 15.4272 20.7834 15.4272 19.0812Z" fill="#43506F"/>
<path d="M117.99 19.4538H102.072C98.9267 19.4538 96.3678 22.0129 96.3678 25.1582V38.0361C96.3678 43.4081 92.0131 47.7631 86.6408 47.7631C81.2686 47.7631 76.9138 43.4081 76.9138 38.0361V25.1582C76.9138 11.286 88.1996 0 102.072 0H117.99V19.4538Z" fill="#D0D4DE"/>
<path d="M76.9138 25.2145V38.0364C76.9138 43.4084 81.2686 47.7634 86.6408 47.7634C92.0131 47.7634 96.3678 43.4084 96.3678 38.0364V25.2145H76.9138Z" fill="#C2C7D5"/>
<path d="M110.895 32.4579H7.10498C3.18651 32.4579 0.00976562 35.6344 0.00976562 39.5532V103.907C0.00976562 107.826 3.18626 111.003 7.10498 111.003H110.895C114.814 111.003 117.99 107.826 117.99 103.907V39.5529C117.99 35.6344 114.814 32.4579 110.895 32.4579Z" fill="#EBEDF2"/>
<path d="M107.048 43.4007H10.9527V83.5242H107.048V43.4007Z" fill="#D0D4DE"/>
<path d="M35.169 49.4801C27.4467 49.4801 21.1867 55.7401 21.1867 63.4624C21.1867 69.8323 25.4478 75.2036 31.2739 76.8908L35.169 74.8511L39.0641 76.8908C44.8902 75.2036 49.1513 69.8323 49.1513 63.4624C49.1515 55.7401 42.8913 49.4801 35.169 49.4801Z" fill="#EBEDF2"/>
<path d="M36.7491 61.6552C36.4207 59.9076 33.9176 59.9076 33.5892 61.6552L31.274 76.8908C32.5109 77.2491 33.8167 77.4447 35.169 77.4447C36.5214 77.4447 37.8274 77.2489 39.0641 76.8908L36.7491 61.6552Z" fill="#4D5C80"/>
<path d="M35.1691 49.4798C34.5551 49.4798 33.9515 49.5237 33.3582 49.6005V53.9379C33.3582 54.938 34.169 55.7488 35.1691 55.7488C36.1692 55.7488 36.9799 54.938 36.9799 53.9379V49.6005C36.3869 49.524 35.7833 49.4798 35.1691 49.4798Z" fill="#C2C7D5"/>
<path d="M23.3856 55.9396L25.8853 58.4395C26.2388 58.7932 26.7024 58.97 27.1657 58.97C27.6291 58.97 28.0927 58.7932 28.4461 58.4395C29.1533 57.7323 29.1533 56.5857 28.4461 55.8787L25.7494 53.182C25.7405 53.173 25.7306 53.1655 25.7214 53.1566C24.8273 53.9766 24.0426 54.9129 23.3856 55.9396Z" fill="#C2C7D5"/>
<path d="M44.6167 53.1564C44.6075 53.1654 44.5977 53.1729 44.5887 53.1818L41.892 55.8785C41.1848 56.5857 41.1848 57.7324 41.892 58.4393C42.2455 58.793 42.709 58.9698 43.1724 58.9698C43.6357 58.9698 44.0993 58.793 44.4528 58.4393L46.9525 55.9394C46.2958 54.913 45.5111 53.9766 44.6167 53.1564Z" fill="#C2C7D5"/>
<path d="M66.1737 69.6633C69.5983 69.6633 72.3745 66.8871 72.3745 63.4624C72.3745 60.0378 69.5983 57.2615 66.1737 57.2615C62.749 57.2615 59.9728 60.0378 59.9728 63.4624C59.9728 66.8871 62.749 69.6633 66.1737 69.6633Z" fill="#4D5C80"/>
<path d="M89.9837 69.6633C93.4083 69.6633 96.1846 66.8871 96.1846 63.4624C96.1846 60.0378 93.4083 57.2615 89.9837 57.2615C86.559 57.2615 83.7828 60.0378 83.7828 63.4624C83.7828 66.8871 86.559 69.6633 89.9837 69.6633Z" fill="#4285F4"/>
</svg>
