<svg width="114" height="120" viewBox="0 0 114 120" fill="none" xmlns="http://www.w3.org/2000/svg">
<rect x="43.5005" y="46.3037" width="55.3754" height="11.571" rx="5.78549" fill="white"/>
<path d="M49.7317 70.1262C42.5738 66.7029 36.8087 69.6905 34.8223 70.1262L37.715 113.368H109.827L110.86 70.1262C103.801 65.215 98.0153 68.3656 95.9508 70.1262C93.7144 72.4947 87.8066 75.2397 80.2959 70.1262C73.6806 65.6224 68.3684 67.8931 65.3865 70.1262C62.6757 72.1564 57.8414 74.0048 49.7317 70.1262Z" fill="#EBEDF2"/>
<path d="M0.109375 51.4006C0.109375 44.5537 5.65992 39.0031 12.5069 39.0031C19.3538 39.0031 24.9043 44.5537 24.9043 51.4006V110C24.9043 115.523 20.4272 120 14.9043 120H10.1094C4.58652 120 0.109375 115.523 0.109375 110V51.4006Z" fill="#D0D4DE"/>
<path d="M56.3221 97.9647C60.2081 97.9647 63.3582 94.8146 63.3582 90.9286C63.3582 87.0427 60.2081 83.8925 56.3221 83.8925C52.4362 83.8925 49.286 87.0427 49.286 90.9286C49.286 94.8146 52.4362 97.9647 56.3221 97.9647Z" fill="#4D5C80"/>
<path d="M88.259 97.9637C92.145 97.9637 95.2951 94.8136 95.2951 90.9276C95.2951 87.0417 92.145 83.8915 88.259 83.8915C84.3731 83.8915 81.2229 87.0417 81.2229 90.9276C81.2229 94.8136 84.3731 97.9637 88.259 97.9637Z" fill="#E13F3F"/>
<path d="M52.0811 90.928C52.0811 87.521 54.5032 84.68 57.7194 84.0318C53.3459 83.1502 49.2865 86.4959 49.2865 90.928C49.2865 95.3704 53.3551 98.7039 57.7194 97.8243C54.5032 97.1762 52.0811 94.3352 52.0811 90.928Z" fill="#43506F"/>
<path d="M84.0175 90.9275C84.0175 87.5205 86.4396 84.6795 89.6558 84.0313C85.2823 83.1497 81.2229 86.4954 81.2229 90.9275C81.2229 95.37 85.2915 98.7034 89.6558 97.8239C86.4396 97.1757 84.0175 94.3347 84.0175 90.9275Z" fill="#C33434"/>
<path d="M59.6245 92.0069H53.0202C52.4244 92.0069 51.9413 91.5239 51.9413 90.9279C51.9413 90.3321 52.4243 89.849 53.0202 89.849H59.6245C60.2203 89.849 60.7034 90.3321 60.7034 90.9279C60.7034 91.5239 60.2203 92.0069 59.6245 92.0069Z" fill="#F5F5F5"/>
<path d="M91.5605 92.0069H84.9563C84.3604 92.0069 83.8773 91.5239 83.8773 90.9279C83.8773 90.3321 84.3603 89.849 84.9563 89.849H91.5605C92.1563 89.849 92.6394 90.3321 92.6394 90.9279C92.6393 91.5239 92.1563 92.0069 91.5605 92.0069Z" fill="#F5F5F5"/>
<path d="M88.2586 95.3092C87.6628 95.3092 87.1797 94.8262 87.1797 94.2302V87.626C87.1797 87.0302 87.6627 86.5471 88.2586 86.5471C88.8544 86.5471 89.3376 87.03 89.3376 87.626V94.2302C89.3376 94.826 88.8546 95.3092 88.2586 95.3092Z" fill="#F5F5F5"/>
<path d="M72.9372 26.0312C71.7886 29.7577 67.8361 31.8557 64.1535 30.6925L39.7457 22.9843C36.0631 21.8218 33.9903 17.8207 35.1395 14.0942C36.2887 10.3677 40.2413 8.26968 43.9232 9.43217L68.3317 17.1404C72.0136 18.3035 74.0864 22.304 72.9372 26.0312Z" fill="#D0D4DE"/>
<path d="M35.1396 14.1136C33.99 17.8546 36.0636 21.8712 39.7475 23.0382L54.4805 27.7076C56.4362 21.8121 56.5732 16.9585 56.0484 13.2753L43.9265 9.43348C40.2432 8.26647 36.2886 10.3719 35.1396 14.1136Z" fill="#C8CDDA"/>
<path d="M77.7188 49.1422C75.8751 49.1479 74.3794 47.6555 74.378 45.8082L74.3762 41.9248C74.3748 39.9526 72.7716 38.3526 70.803 38.3591C68.8338 38.3653 67.2329 39.975 67.2346 41.9481L67.2364 45.8314C67.2382 47.6782 65.7438 49.1808 63.9002 49.1864C62.0568 49.1929 60.5608 47.6997 60.56 45.8526L60.5573 41.9696C60.5535 36.3088 65.1481 31.6884 70.7984 31.67C76.4494 31.652 81.0491 36.2422 81.0526 41.9036L81.0553 45.7867C81.0567 47.634 79.5627 49.136 77.7188 49.1422Z" fill="#C2C7D5"/>
<path d="M6.90397 57.8545C2.62176 54.7163 1.6788 48.6043 4.80739 44.2731L30.0011 9.59336C33.1299 5.26147 39.1933 4.28567 43.4755 7.42397C47.7571 10.5621 48.7007 16.6742 45.5721 21.0054L20.3783 55.6851C17.2496 60.017 11.1862 60.9928 6.90397 57.8545Z" fill="#EBEDF2"/>
<path d="M41.2966 14.5525C41.2966 16.4925 39.6316 18.0651 37.5774 18.0651C35.5232 18.0651 33.8582 16.4925 33.8582 14.5525C33.8582 12.6125 35.5232 11.0399 37.5774 11.0399C39.6316 11.0399 41.2966 12.6125 41.2966 14.5525Z" fill="#C2C7D5"/>
<path d="M16.226 50.1611C16.226 52.215 14.4686 53.8806 12.3005 53.8806C10.1324 53.8806 8.37427 52.215 8.37427 50.1611C8.37427 48.1071 10.1324 46.4421 12.3005 46.4421C14.4686 46.4421 16.226 48.1071 16.226 50.1611Z" fill="#C2C7D5"/>
<path d="M81.1064 25.435C81.1064 30.7981 76.6656 35.1464 71.1884 35.1464C65.7112 35.1464 61.2704 30.7981 61.2704 25.435C61.2704 20.0713 65.7112 15.7237 71.1884 15.7237C76.6656 15.7237 81.1064 20.0713 81.1064 25.435Z" fill="#EBEDF2"/>
<path d="M74.9077 25.2279C74.9077 27.2821 73.2426 28.9472 71.1885 28.9472C69.1343 28.9472 67.4692 27.2821 67.4692 25.2279C67.4692 23.1737 69.1343 21.5087 71.1885 21.5087C73.2426 21.5087 74.9077 23.1737 74.9077 25.2279Z" fill="#C2C7D5"/>
<path fill-rule="evenodd" clip-rule="evenodd" d="M39.644 72.3662C39.6439 72.3662 39.6437 72.3662 39.6436 72.3663V66.051C39.6436 63.6546 37.7009 61.7119 35.3045 61.7119C32.908 61.7119 30.9653 63.6546 30.9653 66.051V81.9611V94.9785V109.924C30.9653 115.25 35.2824 119.567 40.6078 119.567H104.248C109.574 119.567 113.891 115.25 113.891 109.924V95.9427V81.9611V66.051C113.891 63.6546 111.948 61.7119 109.552 61.7119C107.155 61.7119 105.212 63.6546 105.212 66.051V70.6526C105.213 70.6843 105.213 70.7159 105.213 70.7477V100.889C105.213 106.411 100.736 110.889 95.2129 110.889H49.644C44.1212 110.889 39.644 106.411 39.644 100.889V72.3662Z" fill="#D0D4DE"/>
<path fill-rule="evenodd" clip-rule="evenodd" d="M35.9309 71.5796L35.9311 71.5796V100.744C35.9311 106.267 40.4083 110.744 45.9311 110.744H47.9404C43.2289 109.936 39.6437 105.831 39.6437 100.889V72.3662L39.6432 72.3663V66.051C39.6432 63.6546 37.7005 61.7119 35.3041 61.7119C34.9902 61.7119 34.6841 61.7452 34.3892 61.8086C35.3329 62.6176 35.9309 63.8185 35.9309 65.1591V71.5796ZM101.612 119.567H104.248C109.573 119.567 113.89 115.25 113.89 109.924V95.9427V81.9611V66.051C113.89 63.7257 112.061 61.8276 109.763 61.717C110.771 62.5255 111.415 63.767 111.415 65.1591V81.3344V95.549V109.764C111.415 115.178 107.026 119.567 101.612 119.567Z" fill="#C2C7D5"/>
</svg>
